<svg width="21" height="21" viewBox="0 0 21 21" fill="none" xmlns="http://www.w3.org/2000/svg">
<path d="M15.5551 19.0553C14.5989 19.524 13.6004 19.8568 12.5645 20.0443C11.5286 20.2318 10.5395 20.3256 9.59731 20.3256C8.10669 20.3256 6.77544 20.1006 5.59888 19.6553C4.42231 19.21 3.42388 18.5865 2.59888 17.785C1.77388 16.9834 1.14575 16.0318 0.705127 14.9256C0.264502 13.8193 0.0441895 12.6146 0.0441895 11.3115C0.0441895 9.61934 0.334815 8.08184 0.916065 6.69902C1.49731 5.31621 2.29419 4.14434 3.31606 3.17871C4.33325 2.21309 5.53794 1.46777 6.93013 0.942773C8.31763 0.417773 9.81294 0.155273 11.4114 0.155273C13.0098 0.155273 14.3223 0.380273 15.4848 0.825586C16.6473 1.2709 17.6176 1.87559 18.4051 2.63965C19.1879 3.39902 19.7786 4.28965 20.1723 5.29746C20.5661 6.30996 20.7629 7.37402 20.7629 8.48496C20.7629 9.5959 20.6129 10.5334 20.3176 11.4287C20.0176 12.324 19.6004 13.0928 19.0567 13.735C18.5176 14.3771 17.8708 14.8787 17.1254 15.2303C16.3801 15.5818 15.5598 15.76 14.6645 15.76C13.9098 15.76 13.3239 15.5959 12.8973 15.2725C12.4754 14.949 12.2317 14.5834 12.1661 14.1803C11.7583 14.6303 11.2754 14.9959 10.7176 15.2725C10.1598 15.5537 9.527 15.6896 8.82388 15.6896C8.26138 15.6896 7.74575 15.5959 7.28169 15.4084C6.81763 15.2209 6.41919 14.9443 6.08169 14.5834C5.74419 14.2225 5.48169 13.7818 5.29419 13.2521C5.10669 12.7271 5.01294 12.1178 5.01294 11.4287C5.01294 10.5053 5.18638 9.6334 5.52856 8.81777C5.87544 8.00215 6.34419 7.28965 6.9395 6.67559C7.53481 6.06152 8.24731 5.57871 9.06763 5.21777C9.89263 4.85684 10.7833 4.67402 11.7395 4.67402C12.4286 4.67402 13.0801 4.73965 13.6942 4.87559C14.3083 5.01152 14.8567 5.18496 15.3395 5.40527L14.3036 11.3256C14.177 12.174 14.1629 12.774 14.2567 13.1209C14.3504 13.4678 14.5801 13.6412 14.9411 13.6412C15.302 13.6412 15.6583 13.524 16.0098 13.2896C16.3614 13.0553 16.6754 12.7178 16.952 12.2771C17.2239 11.8365 17.4442 11.3068 17.6129 10.6834C17.777 10.0646 17.8614 9.37559 17.8614 8.6209C17.8614 7.70684 17.7254 6.85371 17.4489 6.05215C17.1723 5.25059 16.7739 4.55215 16.2489 3.95215C15.7239 3.35215 15.077 2.87871 14.3083 2.52715C13.5395 2.1709 12.6536 1.99746 11.6504 1.99746C10.5817 1.99746 9.53169 2.18496 8.49575 2.55996C7.45981 2.93496 6.53169 3.51152 5.70669 4.27559C4.88169 5.04434 4.21606 6.01465 3.70513 7.18184C3.19419 8.34902 2.94106 9.72715 2.94106 11.3115C2.94106 12.474 3.11919 13.5006 3.47075 14.3959C3.82231 15.2912 4.30981 16.0412 4.92856 16.6412C5.54731 17.2459 6.26919 17.7053 7.09419 18.0193C7.91919 18.3334 8.80044 18.4881 9.74263 18.4881C10.6848 18.4881 11.5708 18.3943 12.3536 18.2068C13.1364 18.0193 13.9379 17.7146 14.7536 17.2881L15.5551 19.0553ZM12.2598 6.58652C11.6645 6.58652 11.102 6.72246 10.577 6.98965C10.052 7.25684 9.59263 7.61309 9.19888 8.06309C8.80513 8.51309 8.50044 9.0334 8.28013 9.61934C8.05981 10.21 7.952 10.8334 7.952 11.499C7.952 12.1646 8.07388 12.7225 8.31763 13.0928C8.56138 13.4631 8.91763 13.6459 9.38638 13.6459C9.79419 13.6459 10.1973 13.4443 10.6004 13.0459C10.9989 12.6428 11.2567 12.1271 11.3645 11.499L12.2598 6.58652Z" fill="#003A8C"/>
</svg>
