<svg width="12" height="12" viewBox="0 0 12 12" fill="none" xmlns="http://www.w3.org/2000/svg">
<g clip-path="url(#clip0_1064_8424)">
<path d="M8.5 3.5V6M8.5 6C8.5 6.66304 8.23661 7.29893 7.76777 7.76777C7.29893 8.23661 6.66304 8.5 6 8.5C5.33696 8.5 4.70107 8.23661 4.23223 7.76777C3.76339 7.29893 3.5 6.66304 3.5 6C3.5 5.33696 3.76339 4.70107 4.23223 4.23223C4.70107 3.76339 5.33696 3.5 6 3.5C6.66304 3.5 7.29893 3.76339 7.76777 4.23223C8.23661 4.70107 8.5 5.33696 8.5 6ZM8.5 6V7C8.5 7.39782 8.65804 7.77936 8.93934 8.06066C9.22064 8.34196 9.60218 8.5 10 8.5C10.3978 8.5 10.7794 8.34196 11.0607 8.06066C11.342 7.77936 11.5 7.39782 11.5 7V6C11.5 4.54131 10.9205 3.14236 9.88909 2.11091C8.85764 1.07946 7.45869 0.5 6 0.5C4.54131 0.5 3.14236 1.07946 2.11091 2.11091C1.07946 3.14236 0.5 4.54131 0.5 6C0.5 7.45869 1.07946 8.85764 2.11091 9.88909C3.14236 10.9205 4.54131 11.5 6 11.5H8.5" stroke="black" stroke-linecap="round"/>
</g>
<defs>
<clipPath id="clip0_1064_8424">
<rect width="12" height="12" fill="white"/>
</clipPath>
</defs>
</svg>
